# xmcd
#
# Track frame offsets:
# 150
# 18442
# 37118
# 49950
# 67139
# 83939
# 99549
# 109964
# 126562
# 141736
# 158498
# 167788
#
# Disc length: 2529 seconds
#
# Revision: 0
# Processed by: cddbd v1.5.2PL0 Copyright (c) Steve Scherf et al.
# Submitted via: cdrdao 1.2.3rc2
#
DISCID=b509df0c
DTITLE=Wooden Wand - Death Seat 
DYEAR=2010
DGENRE=country
TTITLE0=Sleepwalking After Midnight
TTITLE1=The Mountain
TTITLE2=Servant To Blues
TTITLE3=Bobby
TTITLE4=I Made You
TTITLE5=Death Seat
TTITLE6=I Wanna Make A Difference
TTITLE7=Ms Mowse
TTITLE8=Until Wrong Looks Right
TTITLE9=Hotel Bar
TTITLE10=The Arc
TTITLE11=Tiny Confessions
EXTD=Young God Records 2010
EXTD=
EXTD=Acoustic Guitar, Electric Guitar, Mandolin, Vocals, Written-By – James Jackson Toth
EXTD=Cello – Casey Kaufman
EXTD=Double Bass – Spencer Duncan
EXTD=Drums, Percussion – Tyler Coppage
EXTD=Electric Bass – Bingham Barnes
EXTD=Electric Guitar, Acoustic Guitar – Joey Kneiser
EXTD=Electric Guitar, Mandolin, Piano – William Tyler (3)
EXTD=Electric Guitar, Vocals – Caleb Mulkerin
EXTD=Fiddle – Andrew Mosiman
EXTD=Piano, Electric Bass, Electric Guitar – DM Seidel
EXTD=Steel Guitar [Pedal], Resonator Guitar, Organ, Electric Piano, Vocals – Brian Lowery
EXTD=Theremin, Mandolin, Percussion – Kenny Siegal
EXTD=Vocals – Colleen Kinsella, Kerry Kennedy, Siobhan Duffy
EXTD=
EXTD=Producer – Michael Gira
EXTD=Mastered By – Kevin Mcmahon (2)
EXTD=Mixed By – Kevin McMahon (2), Michael Gira
EXTD=Recorded By – Joey Kneiser, Stephen Goose Trageser
EXTD=
EXTD=Recorded at the Haunted Mansion, Murfreesboro, TN, January 2 - 10, 2010 and at Old Soul Studios, Catskill, NY, January 16 - 17, 2010.
EXTD=All Songs by James Jackson Toth. 
EXTT0=
EXTT1=
EXTT2=
EXTT3=
EXTT4=
EXTT5=
EXTT6=
EXTT7=
EXTT8=
EXTT9=
EXTT10=
EXTT11=
PLAYORDER=
